# xmcd
#
# Track frame offsets: 
#        225
#        13386
#        30786
#        43798
#        56235
#        82548
#        98475
#        107126
#        121144
#        132282
#        149619
#        172947
#        190807
#        202997
#        217879
#
# Disc length: 3118 seconds
#
# Revision: 1
# Processed by: cddbd v1.5.2PL0 Copyright (c) Steve Scherf et al.
# Submitted via: ExactAudioCopy v1.3
#
DISCID=c20c2b0f
DTITLE=Various Artist - Kings and Queens of Irish Country (Irish Daily Mail)
DYEAR=2009
DGENRE=Country
TTITLE0=Ray Lynam - Gypsy Joe and Me
TTITLE1=Hugo Duncan - If We Only Had Old Ireland Over Here
TTITLE2=Philomena Begley - Old Ardboe
TTITLE3=Daniel O'Donnell - The Old Rustic Bridge
TTITLE4=Paddy Reilly - The Fields of Athenry
TTITLE5=Kathy Durkin - Save The Last Dance For Me
TTITLE6=Eileen King - You Ain't Woman Enough
TTITLE7=Dermot O'Brien - Four Green Fields
TTITLE8=Dermot Hegarty - Goodbye Mick, Goodbye Pat
TTITLE9=Glen Curtin - Tears On The Telephone
TTITLE10=Kilkenny Ensemble - My Irish Molly
TTITLE11=Kilkenny Ensemble - Molly Malone
TTITLE12=Kilkenny Ensemble - I'll Tell Me Ma
TTITLE13=Kilkenny Ensemble - Danny Boy
TTITLE14=Kilkenny Ensemble - Rose of Tralee
EXTD=
EXTT0=
EXTT1=
EXTT2=
EXTT3=
EXTT4=
EXTT5=
EXTT6=
EXTT7=
EXTT8=
EXTT9=
EXTT10=
EXTT11=
EXTT12=
EXTT13=
EXTT14=
PLAYORDER=
